<svg id="Layer_1" viewBox="0 0 512 512" xmlns="http://www.w3.org/2000/svg" xmlns:xlink="http://www.w3.org/1999/xlink" data-name="Layer 1"><linearGradient id="GradientFill_1" gradientUnits="userSpaceOnUse" x1="85.842" x2="426.158" y1="418.093" y2="77.777"><stop offset="0" stop-color="#e81e25"/><stop offset=".108" stop-color="#ea3522"/><stop offset=".416" stop-color="#f1711c"/><stop offset=".678" stop-color="#f59d17"/><stop offset=".881" stop-color="#f8b814"/><stop offset="1" stop-color="#f9c213"/></linearGradient><path d="m383.64 51.839h-51.217a12.918 12.918 0 0 0 -12.9-12.7h-21.723a32.156 32.156 0 0 0 -32.05-30.139h-19.5a32.156 32.156 0 0 0 -32.05 30.137h-21.725a12.918 12.918 0 0 0 -12.9 12.7h-51.215a40.137 40.137 0 0 0 -40.092 40.094v312.008a40.137 40.137 0 0 0 40.092 40.092h44.24a88.271 88.271 0 0 0 166.536 0h44.504a40.137 40.137 0 0 0 40.092-40.092v-312.008a40.137 40.137 0 0 0 -40.092-40.092zm-40.514 349.733a88.234 88.234 0 0 0 -174.524 0h-23.7a14.194 14.194 0 0 1 -14.178-14.178v-278.918a14.2 14.2 0 0 1 14.181-14.176h34.661v1.478a12.924 12.924 0 0 0 12.909 12.91h127.05a12.924 12.924 0 0 0 12.909-12.91v-1.478h34.666a14.2 14.2 0 0 1 14.178 14.179v278.915a14.194 14.194 0 0 1 -14.178 14.178zm-149.56-348.435h27.569a7 7 0 0 0 7-7v-5.023a18.135 18.135 0 0 1 18.115-18.114h19.5a18.135 18.135 0 0 1 18.115 18.114v5.023a7 7 0 0 0 7 7h27.569v41.548h-124.868zm-65.206 376.894a26.122 26.122 0 0 1 -26.092-26.092v-312.008a26.121 26.121 0 0 1 26.092-26.092h51.206v14.461h-34.661a28.211 28.211 0 0 0 -28.178 28.179v278.915a28.21 28.21 0 0 0 28.178 28.178h22.733a88.975 88.975 0 0 0 1.331 14.459zm180.034 37.21a74.254 74.254 0 1 1 0-105.059 74.039 74.039 0 0 1 0 105.059zm101.338-63.3a26.122 26.122 0 0 1 -26.092 26.092h-40.882a88.977 88.977 0 0 0 1.332-14.459h23.01a28.21 28.21 0 0 0 28.178-28.178v-278.92a28.211 28.211 0 0 0 -28.178-28.176h-34.666v-14.461h51.206a26.121 26.121 0 0 1 26.092 26.092zm-55.29-88.215a7 7 0 0 1 -7 7h-182.885a7 7 0 1 1 0-14h182.885a7 7 0 0 1 7 6.998zm0-87.478a7 7 0 0 1 -7 7h-182.885a7 7 0 0 1 0-14h182.885a7 7 0 0 1 7 6.998zm0 43.419a7 7 0 0 1 -7 7h-182.885a7 7 0 1 1 0-14h182.885a7 7 0 0 1 7 6.998zm0-130.9a7 7 0 0 1 -7 7h-182.885a7 7 0 0 1 0-14h182.885a7 7 0 0 1 7 7.001zm0 43.419a7 7 0 0 1 -7 7h-182.885a7 7 0 0 1 0-14h182.885a7 7 0 0 1 7 7.001zm-55.982 201.744a7 7 0 0 1 0 9.9l-44.593 44.594a7 7 0 0 1 -9.9 0l-21.946-21.946a7 7 0 0 1 9.9-9.9l17 17 39.644-39.644a7 7 0 0 1 9.895-.004z" fill="url(#GradientFill_1)"/></svg>