<svg id="Layer_1" height="512" viewBox="0 0 512 512" width="512" xmlns="http://www.w3.org/2000/svg" xmlns:xlink="http://www.w3.org/1999/xlink" data-name="Layer 1"><linearGradient id="GradientFill_1" gradientUnits="userSpaceOnUse" x1="55.038" x2="456.962" y1="500.607" y2="98.682"><stop offset="0" stop-color="#e81e25"/><stop offset=".108" stop-color="#ea3522"/><stop offset=".416" stop-color="#f1711c"/><stop offset=".678" stop-color="#f59d17"/><stop offset=".881" stop-color="#f8b814"/><stop offset="1" stop-color="#f9c213"/></linearGradient><path d="m453.551 116.134h-67.1v-11.068a76.307 76.307 0 0 0 -76.221-76.22h-108.458a76.307 76.307 0 0 0 -76.221 76.22v11.068h-67.1a50.506 50.506 0 0 0 -50.451 50.449v266.123a50.506 50.506 0 0 0 50.449 50.448h395.1a50.506 50.506 0 0 0 50.451-50.448v-266.123a50.506 50.506 0 0 0 -50.449-50.449zm-312-11.068a60.288 60.288 0 0 1 60.221-60.22h108.456a60.288 60.288 0 0 1 60.221 60.22v11.068h-19.133v-11.068a41.135 41.135 0 0 0 -41.088-41.088h-108.456a41.135 41.135 0 0 0 -41.088 41.088v11.068h-19.133zm35.133 11.068v-11.068a25.424 25.424 0 0 1 25.088-25.088h108.456a25.424 25.424 0 0 1 25.088 25.088v11.068zm-118.235 16h395.1a34.488 34.488 0 0 1 34.451 34.449v67.273.033a34.562 34.562 0 0 1 -34.447 34.082h-138.533v-49.551a19.45 19.45 0 0 0 -19.428-19.429h-79.184a19.451 19.451 0 0 0 -19.429 19.429v49.551h-138.53a34.544 34.544 0 0 1 -34.449-34.171v-67.217a34.488 34.488 0 0 1 34.449-34.449zm240.571 86.286v75.51a43.021 43.021 0 0 1 -86.041 0v-75.51a3.476 3.476 0 0 1 3.429-3.429h79.184a3.475 3.475 0 0 1 3.428 3.429zm154.531 248.734h-395.102a34.487 34.487 0 0 1 -34.449-34.448v-162.425a50.25 50.25 0 0 0 34.449 13.69h138.53v9.959a59.021 59.021 0 0 0 118.041 0v-9.959h138.531a50.254 50.254 0 0 0 34.449-13.704v162.439a34.487 34.487 0 0 1 -34.449 34.448z" fill="url(#GradientFill_1)"/></svg>