<svg id="Layer_1" viewBox="0 0 512 512" xmlns="http://www.w3.org/2000/svg" xmlns:xlink="http://www.w3.org/1999/xlink" data-name="Layer 1"><linearGradient id="GradientFill_1" gradientUnits="userSpaceOnUse" x1="57.444" x2="454.106" y1="479.786" y2="83.124"><stop offset="0" stop-color="#e81e25"/><stop offset=".108" stop-color="#ea3522"/><stop offset=".416" stop-color="#f1711c"/><stop offset=".678" stop-color="#f59d17"/><stop offset=".881" stop-color="#f8b814"/><stop offset="1" stop-color="#f9c213"/></linearGradient><path d="m502.576 215.172v-2.95a18.176 18.176 0 0 0 -18.155-18.155h-43.333v-105.073a45.724 45.724 0 0 0 -45.671-45.672h-10.887v-4.6a29.721 29.721 0 1 0 -59.441 0v4.6h-70.112v-4.6a29.721 29.721 0 1 0 -59.441 0v4.6h-70.113v-4.6a29.721 29.721 0 1 0 -59.441 0v4.6h-10.882a45.725 45.725 0 0 0 -45.676 45.672v323.885a45.724 45.724 0 0 0 45.676 45.672h261.619c-.022 2.077.037 4.192.155 6.335a18.168 18.168 0 0 0 -11.874 17.014v2.949a18.176 18.176 0 0 0 18.158 18.151h161.262a18.177 18.177 0 0 0 18.156-18.155v-2.945a18.173 18.173 0 0 0 -13.46-17.517c1.394-41.491-18.052-65.345-33.835-84.677-7.353-9.007-13.7-16.785-16.727-24.8-1.969-5.218-2.012-7.007-.283-11.959 2.891-8.284 9.434-16.3 17.01-25.579 15.78-19.327 35.228-43.185 33.835-84.677a18.171 18.171 0 0 0 13.46-17.519zm-14-2.95v2.95a4.21 4.21 0 0 1 -4.155 4.154h-161.263a4.21 4.21 0 0 1 -4.158-4.154v-2.95a4.211 4.211 0 0 1 4.155-4.155h161.266a4.211 4.211 0 0 1 4.155 4.155zm-433.476-154.9h10.882v4.6a29.755 29.755 0 0 0 29.718 29.722 7 7 0 0 0 0-14 15.738 15.738 0 0 1 -15.718-15.721v-23.2a15.721 15.721 0 1 1 31.441 0v4.6h-7.343a7 7 0 1 0 0 14h91.456v4.6a29.755 29.755 0 0 0 29.72 29.721 7 7 0 0 0 0-14 15.738 15.738 0 0 1 -15.72-15.721v-23.2a15.721 15.721 0 1 1 31.441 0v4.6h-7.3a7 7 0 1 0 0 14h91.41v4.6a29.754 29.754 0 0 0 29.721 29.72 7 7 0 0 0 0-14 15.738 15.738 0 0 1 -15.721-15.72v-23.2a15.721 15.721 0 1 1 31.441 0v4.6h-7.3a7 7 0 0 0 0 14h32.185a31.708 31.708 0 0 1 31.671 31.672v52.943h-403.66v-52.944a31.708 31.708 0 0 1 31.676-31.672zm0 387.229a31.708 31.708 0 0 1 -31.672-31.672v-256.942h403.66v38.13h-103.93a18.176 18.176 0 0 0 -18.158 18.155v2.95a18.169 18.169 0 0 0 11.871 17.01c-2.211 40.282 21.033 68.919 38.235 90.087 7.019 8.637 13.081 16.1 15.476 22.017 1.437 3.55 1.33 5.7-.476 9.59-2.674 5.755-8.386 12.784-15 20.923-14.156 17.419-32.41 39.893-37.2 69.752zm433.48 40.294a4.211 4.211 0 0 1 -4.16 4.155h-161.262a4.21 4.21 0 0 1 -4.158-4.155v-2.945a4.211 4.211 0 0 1 4.155-4.155h161.265a4.211 4.211 0 0 1 4.156 4.155zm-44.143-176.333c-8.063 9.877-15.68 19.206-19.384 29.819-2.806 8.041-2.708 13.269.4 21.515 3.831 10.153 11.19 19.167 18.981 28.71 14.974 18.341 31.834 39.022 30.694 75.185h-144.3c-1.735-34.706 18.615-59.776 35.142-80.113 7.2-8.864 13.425-16.52 16.832-23.854 3.428-7.378 3.654-13.581.758-20.739-3.183-7.868-9.859-16.083-17.59-25.6-16.526-20.336-36.876-45.407-35.142-80.113h144.3c1.142 36.167-15.719 56.85-30.691 75.19zm10.813-37.456a7 7 0 0 0 -10.174-5.89c-16.052 8.195-24.038 3.781-35.09-2.332-10.061-5.563-22.582-12.488-41.482-6.51-14.08 4.453-17.182 13.649-17.778 18.734-1.72 14.68 11.788 29.8 25.938 38.278 10.481 6.277 21.368 9.427 31.674 9.427a45.493 45.493 0 0 0 26.29-8.082c14.61-10.173 21.548-24.851 20.622-43.625zm-28.621 32.135c-17.016 11.849-37.04 1.568-42.772-1.866-12.934-7.746-19.933-18.61-19.226-24.637.359-3.071 3.083-5.431 8.1-7.016 13.166-4.164 20.809.062 30.484 5.413 9.465 5.234 20.85 11.531 37.454 6.853-1.639 8.844-6.281 15.851-14.04 21.253zm-55.1 89.139c-10.682 3.122-19.182 10.583-25.263 22.174-6.427 12.25-4.389 24.337 5.592 33.164 11.228 9.928 31.879 15.1 52.167 15.1 16.917 0 33.583-3.6 44.311-11.029 11.36-7.871 15.109-19.626 10.285-32.251a73.609 73.609 0 0 0 -17.311-26.233 7 7 0 0 0 -4.915-2.016h-.09l-62.9.812a6.99 6.99 0 0 0 -1.871.279zm61.946 12.945a59.137 59.137 0 0 1 12.068 19.207c2.54 6.649.943 11.5-5.18 15.747-18.267 12.657-63.436 10.917-79.231-3.049-5.175-4.576-5.936-9.564-2.47-16.172 4.132-7.873 9.352-12.78 15.938-14.973zm-36.894-57.306a7 7 0 0 1 -7-7v-11.309a7 7 0 0 1 14 0v11.309a7 7 0 0 1 -6.995 7zm-2.443 2.614a7 7 0 0 1 7 7v13.194a7 7 0 0 1 -14 0v-13.194a7 7 0 0 1 7.005-7zm24.591-11.729.24 13.872a7 7 0 0 1 -6.878 7.12h-.123a7 7 0 0 1 -7-6.879l-.24-13.871a7 7 0 0 1 14-.243zm-6.51 22.968a7 7 0 0 1 7 7v11.729a7 7 0 0 1 -14 0v-11.729a7 7 0 0 1 7.005-7zm-307.914-185.122h-53.463a7 7 0 0 0 -7 7v36.2a7 7 0 0 0 7 7h53.463a7 7 0 0 0 7-7v-36.2a7 7 0 0 0 -7-7zm-7 36.2h-39.463v-22.2h39.463zm89.977-36.2h-53.462a7 7 0 0 0 -7 7v36.2a7 7 0 0 0 7 7h53.462a7 7 0 0 0 7-7v-36.2a7 7 0 0 0 -7-7zm-7 36.2h-39.462v-22.2h39.462zm89.978-36.2h-53.46a7 7 0 0 0 -7 7v36.2a7 7 0 0 0 7 7h53.46a7 7 0 0 0 7-7v-36.2a7 7 0 0 0 -7-7zm-7 36.2h-39.46v-22.2h39.46zm-158.955 32.85h-53.463a7 7 0 0 0 -7 7v36.2a7 7 0 0 0 7 7h53.463a7 7 0 0 0 7-7v-36.2a7 7 0 0 0 -7-7zm-7 36.2h-39.463v-22.2h39.463zm89.977-36.2h-53.462a7 7 0 0 0 -7 7v36.2a7 7 0 0 0 7 7h53.462a7 7 0 0 0 7-7v-36.2a7 7 0 0 0 -7-7zm-7 36.2h-39.462v-22.2h39.462zm89.978-36.2h-53.46a7 7 0 0 0 -7 7v36.2a7 7 0 0 0 7 7h53.46a7 7 0 0 0 7-7v-36.2a7 7 0 0 0 -7-7zm-7 36.2h-39.46v-22.2h39.46zm-158.955 32.855h-53.463a7 7 0 0 0 -7 7v36.195a7 7 0 0 0 7 7h53.463a7 7 0 0 0 7-7v-36.2a7 7 0 0 0 -7-6.995zm-7 36.2h-39.463v-22.2h39.463zm89.977-36.2h-53.462a7 7 0 0 0 -7 7v36.195a7 7 0 0 0 7 7h53.462a7 7 0 0 0 7-7v-36.2a7 7 0 0 0 -7-6.995zm-7 36.2h-39.462v-22.2h39.462zm89.978-36.2h-53.46a7 7 0 0 0 -7 7v36.195a7 7 0 0 0 7 7h53.46a7 7 0 0 0 7-7v-36.2a7 7 0 0 0 -7-6.995zm-7 36.2h-39.46v-22.2h39.46zm-158.955 32.854h-53.463a7 7 0 0 0 -7 7v36.2a7 7 0 0 0 7 7h53.463a7 7 0 0 0 7-7v-36.2a7 7 0 0 0 -7-7zm-7 36.2h-39.463v-22.2h39.463zm89.977-36.2h-53.462a7 7 0 0 0 -7 7v36.2a7 7 0 0 0 7 7h53.462a7 7 0 0 0 7-7v-36.2a7 7 0 0 0 -7-7zm-7 36.2h-39.462v-22.2h39.462zm89.978-36.2h-53.46a7 7 0 0 0 -7 7v36.2a7 7 0 0 0 7 7h53.46a7 7 0 0 0 7-7v-36.2a7 7 0 0 0 -7-7zm-7 36.2h-39.46v-22.2h39.46z" fill="url(#GradientFill_1)"/></svg>